<svg width="75" height="52" viewBox="0 0 75 52" fill="none" xmlns="http://www.w3.org/2000/svg">
<path d="M2.59 42.25C3.33667 42.81 4.48 43.37 6.02 43.93C7.56 44.4433 9.38 44.7 11.48 44.7C13.5333 44.7 15.19 44.3733 16.45 43.72C17.7567 43.02 18.7367 41.9933 19.39 40.64C20.09 39.24 20.5567 37.4667 20.79 35.32C21.07 33.1733 21.21 30.63 21.21 27.69V1.3H29.12V26.57C29.12 30.2567 28.91 33.64 28.49 36.72C28.1167 39.8 27.3467 42.4833 26.18 44.77C25.0133 47.01 23.2633 48.7367 20.93 49.95C18.6433 51.1633 15.5633 51.77 11.69 51.77C9.40333 51.77 7.37333 51.5133 5.6 51C3.82667 50.4867 2.19333 49.7167 0.7 48.69L2.59 42.25ZM69.1797 12.99C68.713 12.4767 68.0364 11.94 67.1497 11.38C66.263 10.7733 65.213 10.2133 63.9997 9.7C62.7864 9.18667 61.4797 8.76667 60.0797 8.44C58.6797 8.11333 57.233 7.95 55.7397 7.95C52.473 7.95 50.0464 8.55667 48.4597 9.77C46.873 10.9833 46.0797 12.6633 46.0797 14.81C46.0797 16.3967 46.523 17.6567 47.4097 18.59C48.2964 19.4767 49.6497 20.2233 51.4697 20.83C53.2897 21.4367 55.5764 22.09 58.3297 22.79C61.6897 23.5833 64.6064 24.54 67.0797 25.66C69.553 26.7333 71.443 28.18 72.7497 30C74.0564 31.82 74.7097 34.2233 74.7097 37.21C74.7097 39.73 74.243 41.9 73.3097 43.72C72.3764 45.54 71.0697 47.0333 69.3897 48.2C67.7097 49.32 65.773 50.16 63.5797 50.72C61.3864 51.2333 59.0297 51.49 56.5097 51.49C54.0364 51.49 51.563 51.2333 49.0897 50.72C46.663 50.2067 44.3297 49.46 42.0897 48.48C39.8964 47.4533 37.8664 46.2167 35.9997 44.77L39.5697 38.05C40.1764 38.6567 41.0397 39.3333 42.1597 40.08C43.3264 40.78 44.6564 41.4567 46.1497 42.11C47.6897 42.7633 49.3464 43.3233 51.1197 43.79C52.9397 44.21 54.783 44.42 56.6497 44.42C59.7764 44.42 62.1564 43.8833 63.7897 42.81C65.4697 41.69 66.3097 40.1033 66.3097 38.05C66.3097 36.37 65.773 35.04 64.6997 34.06C63.6264 33.0333 62.063 32.17 60.0097 31.47C57.9564 30.77 55.5064 30.07 52.6597 29.37C49.393 28.4833 46.663 27.5267 44.4697 26.5C42.2764 25.4267 40.6197 24.0733 39.4997 22.44C38.4264 20.76 37.8897 18.6367 37.8897 16.07C37.8897 12.8033 38.683 10.05 40.2697 7.81C41.8564 5.52333 44.003 3.82 46.7097 2.7C49.463 1.53333 52.543 0.949998 55.9497 0.949998C58.1897 0.949998 60.313 1.20666 62.3197 1.72C64.3264 2.18667 66.193 2.84 67.9197 3.68C69.693 4.52 71.303 5.47666 72.7497 6.55L69.1797 12.99Z" fill="#00FF94"/>
</svg>
