<svg width="135" height="52" viewBox="0 0 135 52" fill="none" xmlns="http://www.w3.org/2000/svg">
<path d="M34 12.99C33.5333 12.4767 32.8567 11.94 31.97 11.38C31.0833 10.7733 30.0333 10.2133 28.82 9.7C27.6067 9.18667 26.3 8.76667 24.9 8.44C23.5 8.11333 22.0533 7.95 20.56 7.95C17.2933 7.95 14.8667 8.55667 13.28 9.77C11.6933 10.9833 10.9 12.6633 10.9 14.81C10.9 16.3967 11.3433 17.6567 12.23 18.59C13.1167 19.4767 14.47 20.2233 16.29 20.83C18.11 21.4367 20.3967 22.09 23.15 22.79C26.51 23.5833 29.4267 24.54 31.9 25.66C34.3733 26.7333 36.2633 28.18 37.57 30C38.8767 31.82 39.53 34.2233 39.53 37.21C39.53 39.73 39.0633 41.9 38.13 43.72C37.1967 45.54 35.89 47.0333 34.21 48.2C32.53 49.32 30.5933 50.16 28.4 50.72C26.2067 51.2333 23.85 51.49 21.33 51.49C18.8567 51.49 16.3833 51.2333 13.91 50.72C11.4833 50.2067 9.15 49.46 6.91 48.48C4.71667 47.4533 2.68667 46.2167 0.82 44.77L4.39 38.05C4.99667 38.6567 5.86 39.3333 6.98 40.08C8.14667 40.78 9.47667 41.4567 10.97 42.11C12.51 42.7633 14.1667 43.3233 15.94 43.79C17.76 44.21 19.6033 44.42 21.47 44.42C24.5967 44.42 26.9767 43.8833 28.61 42.81C30.29 41.69 31.13 40.1033 31.13 38.05C31.13 36.37 30.5933 35.04 29.52 34.06C28.4467 33.0333 26.8833 32.17 24.83 31.47C22.7767 30.77 20.3267 30.07 17.48 29.37C14.2133 28.4833 11.4833 27.5267 9.29 26.5C7.09667 25.4267 5.44 24.0733 4.32 22.44C3.24667 20.76 2.71 18.6367 2.71 16.07C2.71 12.8033 3.50333 10.05 5.09 7.81C6.67667 5.52333 8.82333 3.82 11.53 2.7C14.2833 1.53333 17.3633 0.949998 20.77 0.949998C23.01 0.949998 25.1333 1.20666 27.14 1.72C29.1467 2.18667 31.0133 2.84 32.74 3.68C34.5133 4.52 36.1233 5.47666 37.57 6.55L34 12.99ZM68.043 51.35C64.4496 51.35 61.2063 50.65 58.313 49.25C55.4196 47.8033 52.923 45.89 50.823 43.51C48.723 41.13 47.0896 38.4467 45.923 35.46C44.803 32.4267 44.243 29.3233 44.243 26.15C44.243 22.8367 44.8496 19.6867 46.063 16.7C47.2763 13.6667 48.9563 10.9833 51.103 8.65C53.2496 6.27 55.7696 4.40333 58.663 3.05C61.603 1.65 64.7763 0.949998 68.183 0.949998C71.7296 0.949998 74.9496 1.67333 77.843 3.12C80.783 4.56666 83.2796 6.50333 85.333 8.93C87.433 11.3567 89.043 14.0633 90.163 17.05C91.3296 20.0367 91.913 23.0933 91.913 26.22C91.913 29.5333 91.3063 32.7067 90.093 35.74C88.9263 38.7267 87.2696 41.41 85.123 43.79C82.9763 46.1233 80.433 47.9667 77.493 49.32C74.5996 50.6733 71.4496 51.35 68.043 51.35ZM68.113 44.28C70.633 44.28 72.873 43.7667 74.833 42.74C76.793 41.7133 78.4263 40.3367 79.733 38.61C81.0863 36.8367 82.113 34.8767 82.813 32.73C83.513 30.5367 83.863 28.3433 83.863 26.15C83.863 23.8167 83.4896 21.5533 82.743 19.36C82.043 17.1667 80.993 15.23 79.593 13.55C78.193 11.87 76.513 10.54 74.553 9.56C72.6396 8.53333 70.493 8.02 68.113 8.02C65.593 8.02 63.353 8.53333 61.393 9.56C59.433 10.5867 57.7763 11.9867 56.423 13.76C55.0696 15.4867 54.0196 17.4233 53.273 19.57C52.573 21.7167 52.223 23.91 52.223 26.15C52.223 28.4833 52.5963 30.7467 53.343 32.94C54.0896 35.1333 55.1396 37.07 56.493 38.75C57.893 40.43 59.573 41.7833 61.533 42.81C63.493 43.79 65.6863 44.28 68.113 44.28ZM69.093 33.71H76.653L91.773 51H84.213L69.093 33.71ZM99.893 51V1.3H107.733V44.07H134.403V51H99.893Z" fill="#00FF94"/>
</svg>
